{
	"asset":{
		"generator":"Khronos glTF Blender I/O v4.0.43",
		"version":"2.0"
	},
	"extensionsUsed":[
		"KHR_materials_specular",
		"KHR_materials_ior"
	],
	"scene":0,
	"scenes":[
		{
			"name":"Scene",
			"nodes":[
				0
			]
		}
	],
	"nodes":[
		{
			"mesh":0,
			"name":"male_m05",
			"rotation":[
				0.7071068286895752,
				0,
				0,
				0.7071068286895752
			]
		}
	],
	"materials":[
		{
			"alphaMode":"BLEND",
			"doubleSided":true,
			"extensions":{
				"KHR_materials_specular":{
					"specularFactor":0.05490000173449516
				},
				"KHR_materials_ior":{
					"ior":1.4500000476837158
				}
			},
			"name":"old_caucasian_male_detailed",
			"pbrMetallicRoughness":{
				"baseColorFactor":[
					1,
					1,
					1,
					0
				],
				"baseColorTexture":{
					"index":0
				},
				"metallicFactor":0
			}
		},
		{
			"alphaMode":"BLEND",
			"doubleSided":true,
			"extensions":{
				"KHR_materials_specular":{
					"specularFactor":0.09412000328302383
				},
				"KHR_materials_ior":{
					"ior":1.4500000476837158
				}
			},
			"name":"short04",
			"pbrMetallicRoughness":{
				"baseColorFactor":[
					1,
					1,
					1,
					0
				],
				"baseColorTexture":{
					"index":1
				},
				"metallicFactor":0
			}
		},
		{
			"alphaMode":"BLEND",
			"doubleSided":true,
			"extensions":{
				"KHR_materials_specular":{
					"specularColorFactor":[
						2.0,
						2.0,
						2.0
					]
				},
				"KHR_materials_ior":{
					"ior":1.4500000476837158
				}
			},
			"name":"Eye_brown",
			"pbrMetallicRoughness":{
				"baseColorFactor":[
					1,
					1,
					1,
					0
				],
				"baseColorTexture":{
					"index":2
				},
				"metallicFactor":0
			}
		},
		{
			"alphaMode":"BLEND",
			"doubleSided":true,
			"extensions":{
				"KHR_materials_specular":{
					"specularFactor":0
				},
				"KHR_materials_ior":{
					"ior":1.4500000476837158
				}
			},
			"name":"eyebrow002",
			"pbrMetallicRoughness":{
				"baseColorFactor":[
					1,
					1,
					1,
					0
				],
				"baseColorTexture":{
					"index":3
				},
				"metallicFactor":0
			}
		},
		{
			"alphaMode":"BLEND",
			"doubleSided":true,
			"extensions":{
				"KHR_materials_specular":{
					"specularFactor":0.05490000173449516
				},
				"KHR_materials_ior":{
					"ior":1.4500000476837158
				}
			},
			"name":"male_casualsuit06",
			"pbrMetallicRoughness":{
				"baseColorFactor":[
					1,
					1,
					1,
					0
				],
				"baseColorTexture":{
					"index":4
				},
				"metallicFactor":0
			}
		}
	],
	"meshes":[
		{
			"name":"male_m05",
			"primitives":[
				{
					"attributes":{
						"POSITION":0,
						"NORMAL":1,
						"TEXCOORD_0":2
					},
					"indices":3,
					"material":0
				},
				{
					"attributes":{
						"POSITION":4,
						"NORMAL":5,
						"TEXCOORD_0":6
					},
					"indices":7,
					"material":1
				},
				{
					"attributes":{
						"POSITION":8,
						"NORMAL":9,
						"TEXCOORD_0":10
					},
					"indices":11,
					"material":2
				},
				{
					"attributes":{
						"POSITION":12,
						"NORMAL":13,
						"TEXCOORD_0":14
					},
					"indices":15,
					"material":3
				},
				{
					"attributes":{
						"POSITION":16,
						"NORMAL":17,
						"TEXCOORD_0":18
					},
					"indices":19,
					"material":4
				}
			]
		}
	],
	"textures":[
		{
			"sampler":0,
			"source":0
		},
		{
			"sampler":0,
			"source":1
		},
		{
			"sampler":0,
			"source":2
		},
		{
			"sampler":0,
			"source":3
		},
		{
			"sampler":0,
			"source":4
		}
	],
	"images":[
		{
			"mimeType":"image/png",
			"name":"young_lightskinned_male_diffuse",
			"uri":"young_lightskinned_male_diffuse.png"
		},
		{
			"mimeType":"image/png",
			"name":"short04_diffuse",
			"uri":"short04_diffuse.png"
		},
		{
			"mimeType":"image/png",
			"name":"brown_eye",
			"uri":"brown_eye.png"
		},
		{
			"mimeType":"image/png",
			"name":"eyebrow002",
			"uri":"eyebrow002.png"
		},
		{
			"mimeType":"image/png",
			"name":"male_casualsuit06_diffuse",
			"uri":"male_casualsuit06_diffuse.png"
		}
	],
	"accessors":[
		{
			"bufferView":0,
			"componentType":5126,
			"count":43566,
			"max":[
				5.473800182342529,
				3.6333000659942627,
				0.0052999998442828655
			],
			"min":[
				-5.473800182342529,
				-0.534600019454956,
				-17.050199508666992
			],
			"type":"VEC3"
		},
		{
			"bufferView":1,
			"componentType":5126,
			"count":43566,
			"type":"VEC3"
		},
		{
			"bufferView":2,
			"componentType":5126,
			"count":43566,
			"type":"VEC2"
		},
		{
			"bufferView":3,
			"componentType":5123,
			"count":65352,
			"type":"SCALAR"
		},
		{
			"bufferView":4,
			"componentType":5126,
			"count":2100,
			"max":[
				0.7918999791145325,
				1.4039000272750854,
				-14.992600440979004
			],
			"min":[
				-0.7793999910354614,
				-0.5631999969482422,
				-17.082000732421875
			],
			"type":"VEC3"
		},
		{
			"bufferView":5,
			"componentType":5126,
			"count":2100,
			"type":"VEC3"
		},
		{
			"bufferView":6,
			"componentType":5126,
			"count":2100,
			"type":"VEC2"
		},
		{
			"bufferView":7,
			"componentType":5123,
			"count":3150,
			"type":"SCALAR"
		},
		{
			"bufferView":8,
			"componentType":5126,
			"count":4080,
			"max":[
				0.4564000070095062,
				1.4536999464035034,
				-15.79520034790039
			],
			"min":[
				-0.4564000070095062,
				1.2026000022888184,
				-16.101200103759766
			],
			"type":"VEC3"
		},
		{
			"bufferView":9,
			"componentType":5126,
			"count":4080,
			"type":"VEC3"
		},
		{
			"bufferView":10,
			"componentType":5126,
			"count":4080,
			"type":"VEC2"
		},
		{
			"bufferView":11,
			"componentType":5123,
			"count":6120,
			"type":"SCALAR"
		},
		{
			"bufferView":12,
			"componentType":5126,
			"count":384,
			"max":[
				0.583899974822998,
				1.5407999753952026,
				-15.9822998046875
			],
			"min":[
				-0.583899974822998,
				1.2445000410079956,
				-16.11440086364746
			],
			"type":"VEC3"
		},
		{
			"bufferView":13,
			"componentType":5126,
			"count":384,
			"type":"VEC3"
		},
		{
			"bufferView":14,
			"componentType":5126,
			"count":384,
			"type":"VEC2"
		},
		{
			"bufferView":15,
			"componentType":5123,
			"count":576,
			"type":"SCALAR"
		},
		{
			"bufferView":16,
			"componentType":5126,
			"count":14336,
			"max":[
				2.9862000942230225,
				1.638800024986267,
				-0.6305999755859375
			],
			"min":[
				-3.1240999698638916,
				-1.0844000577926636,
				-14.591699600219727
			],
			"type":"VEC3"
		},
		{
			"bufferView":17,
			"componentType":5126,
			"count":14336,
			"type":"VEC3"
		},
		{
			"bufferView":18,
			"componentType":5126,
			"count":14336,
			"type":"VEC2"
		},
		{
			"bufferView":19,
			"componentType":5123,
			"count":21504,
			"type":"SCALAR"
		}
	],
	"bufferViews":[
		{
			"buffer":0,
			"byteLength":522792,
			"byteOffset":0,
			"target":34962
		},
		{
			"buffer":0,
			"byteLength":522792,
			"byteOffset":522792,
			"target":34962
		},
		{
			"buffer":0,
			"byteLength":348528,
			"byteOffset":1045584,
			"target":34962
		},
		{
			"buffer":0,
			"byteLength":130704,
			"byteOffset":1394112,
			"target":34963
		},
		{
			"buffer":0,
			"byteLength":25200,
			"byteOffset":1524816,
			"target":34962
		},
		{
			"buffer":0,
			"byteLength":25200,
			"byteOffset":1550016,
			"target":34962
		},
		{
			"buffer":0,
			"byteLength":16800,
			"byteOffset":1575216,
			"target":34962
		},
		{
			"buffer":0,
			"byteLength":6300,
			"byteOffset":1592016,
			"target":34963
		},
		{
			"buffer":0,
			"byteLength":48960,
			"byteOffset":1598316,
			"target":34962
		},
		{
			"buffer":0,
			"byteLength":48960,
			"byteOffset":1647276,
			"target":34962
		},
		{
			"buffer":0,
			"byteLength":32640,
			"byteOffset":1696236,
			"target":34962
		},
		{
			"buffer":0,
			"byteLength":12240,
			"byteOffset":1728876,
			"target":34963
		},
		{
			"buffer":0,
			"byteLength":4608,
			"byteOffset":1741116,
			"target":34962
		},
		{
			"buffer":0,
			"byteLength":4608,
			"byteOffset":1745724,
			"target":34962
		},
		{
			"buffer":0,
			"byteLength":3072,
			"byteOffset":1750332,
			"target":34962
		},
		{
			"buffer":0,
			"byteLength":1152,
			"byteOffset":1753404,
			"target":34963
		},
		{
			"buffer":0,
			"byteLength":172032,
			"byteOffset":1754556,
			"target":34962
		},
		{
			"buffer":0,
			"byteLength":172032,
			"byteOffset":1926588,
			"target":34962
		},
		{
			"buffer":0,
			"byteLength":114688,
			"byteOffset":2098620,
			"target":34962
		},
		{
			"buffer":0,
			"byteLength":43008,
			"byteOffset":2213308,
			"target":34963
		}
	],
	"samplers":[
		{
			"magFilter":9729,
			"minFilter":9987
		}
	],
	"buffers":[
		{
			"byteLength":2256316,
			"uri":"male_m05.bin"
		}
	]
}
