{
	"asset":{
		"generator":"Khronos glTF Blender I/O v4.0.43",
		"version":"2.0"
	},
	"scene":0,
	"scenes":[
		{
			"name":"Scene",
			"nodes":[
				0
			]
		}
	],
	"nodes":[
		{
			"mesh":0,
			"name":"SMPL-mesh-female",
			"rotation":[
				0.7071068286895752,
				0,
				0,
				0.7071068286895752
			]
		}
	],
	"materials":[
		{
			"alphaMode":"BLEND",
			"doubleSided":true,
			"name":"Body.004",
			"pbrMetallicRoughness":{
				"baseColorTexture":{
					"index":0
				},
				"metallicFactor":0,
				"metallicRoughnessTexture":{
					"index":1
				}
			}
		}
	],
	"meshes":[
		{
			"extras":{
				"targetNames":[
					"Shape000",
					"Shape001",
					"Shape002",
					"Shape003",
					"Shape004",
					"Shape005",
					"Shape006",
					"Shape007",
					"Shape008",
					"Shape009"
				]
			},
			"name":"SMPL-shapes-female.002",
			"primitives":[
				{
					"attributes":{
						"POSITION":0,
						"NORMAL":1,
						"TEXCOORD_0":2
					},
					"indices":3,
					"material":0,
					"targets":[
						{
							"POSITION":4,
							"NORMAL":5
						},
						{
							"POSITION":6,
							"NORMAL":7
						},
						{
							"POSITION":8,
							"NORMAL":9
						},
						{
							"POSITION":10,
							"NORMAL":11
						},
						{
							"POSITION":12,
							"NORMAL":13
						},
						{
							"POSITION":14,
							"NORMAL":15
						},
						{
							"POSITION":16,
							"NORMAL":17
						},
						{
							"POSITION":18,
							"NORMAL":19
						},
						{
							"POSITION":20,
							"NORMAL":21
						},
						{
							"POSITION":22,
							"NORMAL":23
						}
					]
				}
			],
			"weights":[
				0,
				0,
				0,
				0,
				0,
				0,
				0,
				0,
				0,
				0
			]
		}
	],
	"textures":[
		{
			"sampler":0,
			"source":0
		},
		{
			"sampler":0,
			"source":1
		}
	],
	"images":[
		{
			"mimeType":"image/png",
			"name":"f_01_alb.002-f_01_nrm.002",
			"uri":"f_01_alb_002-f_01_nrm_002.png"
		},
		{
			"mimeType":"image/png",
			"name":"f_01_nrm.002",
			"uri":"f_01_nrm_002.png"
		}
	],
	"accessors":[
		{
			"bufferView":0,
			"componentType":5126,
			"count":7576,
			"max":[
				0.8355870842933655,
				0.16712136566638947,
				-6.0303131377281716e-09
			],
			"min":[
				-0.8348562121391296,
				-0.1198526993393898,
				-1.6583948135375977
			],
			"type":"VEC3"
		},
		{
			"bufferView":1,
			"componentType":5126,
			"count":7576,
			"type":"VEC3"
		},
		{
			"bufferView":2,
			"componentType":5126,
			"count":7576,
			"type":"VEC2"
		},
		{
			"bufferView":3,
			"componentType":5123,
			"count":41328,
			"type":"SCALAR"
		},
		{
			"bufferView":4,
			"componentType":5126,
			"count":7576,
			"max":[
				0.035920679569244385,
				0.011899203062057495,
				0.05223846435546875
			],
			"min":[
				-0.03638339042663574,
				-0.007414303719997406,
				-0.018916845321655273
			],
			"type":"VEC3"
		},
		{
			"bufferView":5,
			"componentType":5126,
			"count":7576,
			"type":"VEC3"
		},
		{
			"bufferView":6,
			"componentType":5126,
			"count":7576,
			"max":[
				0.016102634370326996,
				0.01400788128376007,
				0.011942028999328613
			],
			"min":[
				-0.01833195984363556,
				-0.030423983931541443,
				-0.008891701698303223
			],
			"type":"VEC3"
		},
		{
			"bufferView":7,
			"componentType":5126,
			"count":7576,
			"type":"VEC3"
		},
		{
			"bufferView":8,
			"componentType":5126,
			"count":7576,
			"max":[
				0.008938491344451904,
				0.006007686257362366,
				0.010341763496398926
			],
			"min":[
				-0.009019613265991211,
				-0.002576492726802826,
				-0.0065190792083740234
			],
			"type":"VEC3"
		},
		{
			"bufferView":9,
			"componentType":5126,
			"count":7576,
			"type":"VEC3"
		},
		{
			"bufferView":10,
			"componentType":5126,
			"count":7576,
			"max":[
				0.003308117389678955,
				0.004026062786579132,
				0.005620717070996761
			],
			"min":[
				-0.0028632283210754395,
				-0.0027283132076263428,
				-0.0067639946937561035
			],
			"type":"VEC3"
		},
		{
			"bufferView":11,
			"componentType":5126,
			"count":7576,
			"type":"VEC3"
		},
		{
			"bufferView":12,
			"componentType":5126,
			"count":7576,
			"max":[
				0.0029948651790618896,
				0.004655949771404266,
				0.002321004867553711
			],
			"min":[
				-0.002910912036895752,
				-0.003160931169986725,
				-0.00424647331237793
			],
			"type":"VEC3"
		},
		{
			"bufferView":13,
			"componentType":5126,
			"count":7576,
			"type":"VEC3"
		},
		{
			"bufferView":14,
			"componentType":5126,
			"count":7576,
			"max":[
				0.0044543445110321045,
				0.005208231508731842,
				0.0019555091857910156
			],
			"min":[
				-0.004226118326187134,
				-0.004592433571815491,
				-0.0027559995651245117
			],
			"type":"VEC3"
		},
		{
			"bufferView":15,
			"componentType":5126,
			"count":7576,
			"type":"VEC3"
		},
		{
			"bufferView":16,
			"componentType":5126,
			"count":7576,
			"max":[
				0.0057807862758636475,
				0.00615808367729187,
				0.0015541315078735352
			],
			"min":[
				-0.006328701972961426,
				-0.005707964301109314,
				-0.00217592716217041
			],
			"type":"VEC3"
		},
		{
			"bufferView":17,
			"componentType":5126,
			"count":7576,
			"type":"VEC3"
		},
		{
			"bufferView":18,
			"componentType":5126,
			"count":7576,
			"max":[
				0.002560943365097046,
				0.003534451127052307,
				0.0025995969772338867
			],
			"min":[
				-0.0020356178283691406,
				-0.002032920718193054,
				-0.003413558006286621
			],
			"type":"VEC3"
		},
		{
			"bufferView":19,
			"componentType":5126,
			"count":7576,
			"type":"VEC3"
		},
		{
			"bufferView":20,
			"componentType":5126,
			"count":7576,
			"max":[
				0.0028142333030700684,
				0.0018989667296409607,
				0.0013103485107421875
			],
			"min":[
				-0.0019494891166687012,
				-0.002077043056488037,
				-0.0010907649993896484
			],
			"type":"VEC3"
		},
		{
			"bufferView":21,
			"componentType":5126,
			"count":7576,
			"type":"VEC3"
		},
		{
			"bufferView":22,
			"componentType":5126,
			"count":7576,
			"max":[
				0.002721235156059265,
				0.0018762946128845215,
				0.0016115903854370117
			],
			"min":[
				-0.002868548035621643,
				-0.0026695728302001953,
				-0.0013751387596130371
			],
			"type":"VEC3"
		},
		{
			"bufferView":23,
			"componentType":5126,
			"count":7576,
			"type":"VEC3"
		}
	],
	"bufferViews":[
		{
			"buffer":0,
			"byteLength":90912,
			"byteOffset":0,
			"target":34962
		},
		{
			"buffer":0,
			"byteLength":90912,
			"byteOffset":90912,
			"target":34962
		},
		{
			"buffer":0,
			"byteLength":60608,
			"byteOffset":181824,
			"target":34962
		},
		{
			"buffer":0,
			"byteLength":82656,
			"byteOffset":242432,
			"target":34963
		},
		{
			"buffer":0,
			"byteLength":90912,
			"byteOffset":325088,
			"target":34962
		},
		{
			"buffer":0,
			"byteLength":90912,
			"byteOffset":416000,
			"target":34962
		},
		{
			"buffer":0,
			"byteLength":90912,
			"byteOffset":506912,
			"target":34962
		},
		{
			"buffer":0,
			"byteLength":90912,
			"byteOffset":597824,
			"target":34962
		},
		{
			"buffer":0,
			"byteLength":90912,
			"byteOffset":688736,
			"target":34962
		},
		{
			"buffer":0,
			"byteLength":90912,
			"byteOffset":779648,
			"target":34962
		},
		{
			"buffer":0,
			"byteLength":90912,
			"byteOffset":870560,
			"target":34962
		},
		{
			"buffer":0,
			"byteLength":90912,
			"byteOffset":961472,
			"target":34962
		},
		{
			"buffer":0,
			"byteLength":90912,
			"byteOffset":1052384,
			"target":34962
		},
		{
			"buffer":0,
			"byteLength":90912,
			"byteOffset":1143296,
			"target":34962
		},
		{
			"buffer":0,
			"byteLength":90912,
			"byteOffset":1234208,
			"target":34962
		},
		{
			"buffer":0,
			"byteLength":90912,
			"byteOffset":1325120,
			"target":34962
		},
		{
			"buffer":0,
			"byteLength":90912,
			"byteOffset":1416032,
			"target":34962
		},
		{
			"buffer":0,
			"byteLength":90912,
			"byteOffset":1506944,
			"target":34962
		},
		{
			"buffer":0,
			"byteLength":90912,
			"byteOffset":1597856,
			"target":34962
		},
		{
			"buffer":0,
			"byteLength":90912,
			"byteOffset":1688768,
			"target":34962
		},
		{
			"buffer":0,
			"byteLength":90912,
			"byteOffset":1779680,
			"target":34962
		},
		{
			"buffer":0,
			"byteLength":90912,
			"byteOffset":1870592,
			"target":34962
		},
		{
			"buffer":0,
			"byteLength":90912,
			"byteOffset":1961504,
			"target":34962
		},
		{
			"buffer":0,
			"byteLength":90912,
			"byteOffset":2052416,
			"target":34962
		}
	],
	"samplers":[
		{
			"magFilter":9729,
			"minFilter":9987
		}
	],
	"buffers":[
		{
			"byteLength":2143328,
			"uri":"Female_2.bin"
		}
	]
}
