{
	"asset":{
		"generator":"Khronos glTF Blender I/O v4.0.43",
		"version":"2.0"
	},
	"extensionsUsed":[
		"KHR_materials_specular",
		"KHR_materials_ior"
	],
	"scene":0,
	"scenes":[
		{
			"name":"Scene",
			"nodes":[
				0
			]
		}
	],
	"nodes":[
		{
			"mesh":0,
			"name":"male_m02",
			"rotation":[
				0.7071068286895752,
				0,
				0,
				0.7071068286895752
			]
		}
	],
	"materials":[
		{
			"alphaMode":"BLEND",
			"doubleSided":true,
			"extensions":{
				"KHR_materials_specular":{
					"specularFactor":0.05490000173449516
				},
				"KHR_materials_ior":{
					"ior":1.4500000476837158
				}
			},
			"name":"middleage_asian_male.001",
			"pbrMetallicRoughness":{
				"baseColorFactor":[
					1,
					1,
					1,
					0
				],
				"baseColorTexture":{
					"index":0
				},
				"metallicFactor":0
			}
		},
		{
			"alphaMode":"BLEND",
			"doubleSided":true,
			"extensions":{
				"KHR_materials_specular":{
					"specularFactor":0.10196000337600708
				},
				"KHR_materials_ior":{
					"ior":1.4500000476837158
				}
			},
			"name":"short02.001",
			"pbrMetallicRoughness":{
				"baseColorFactor":[
					1,
					1,
					1,
					0
				],
				"baseColorTexture":{
					"index":1
				},
				"metallicFactor":0
			}
		},
		{
			"alphaMode":"BLEND",
			"doubleSided":true,
			"extensions":{
				"KHR_materials_specular":{
					"specularColorFactor":[
						2.0,
						2.0,
						2.0
					]
				},
				"KHR_materials_ior":{
					"ior":1.4500000476837158
				}
			},
			"name":"Eye_brown.001",
			"pbrMetallicRoughness":{
				"baseColorFactor":[
					1,
					1,
					1,
					0
				],
				"baseColorTexture":{
					"index":2
				},
				"metallicFactor":0
			}
		},
		{
			"alphaMode":"BLEND",
			"doubleSided":true,
			"extensions":{
				"KHR_materials_specular":{
					"specularFactor":0
				},
				"KHR_materials_ior":{
					"ior":1.4500000476837158
				}
			},
			"name":"eyebrow002.001",
			"pbrMetallicRoughness":{
				"baseColorFactor":[
					1,
					1,
					1,
					0
				],
				"baseColorTexture":{
					"index":3
				},
				"metallicFactor":0
			}
		},
		{
			"alphaMode":"BLEND",
			"doubleSided":true,
			"extensions":{
				"KHR_materials_specular":{
					"specularFactor":0.05490000173449516
				},
				"KHR_materials_ior":{
					"ior":1.4500000476837158
				}
			},
			"name":"male_casualsuit06.001",
			"pbrMetallicRoughness":{
				"baseColorFactor":[
					1,
					1,
					1,
					0
				],
				"baseColorTexture":{
					"index":4
				},
				"metallicFactor":0
			}
		},
		{
			"alphaMode":"BLEND",
			"doubleSided":true,
			"extensions":{
				"KHR_materials_specular":{
					"specularFactor":0.5568000078201294
				},
				"KHR_materials_ior":{
					"ior":1.4500000476837158
				}
			},
			"name":"shoes01.001",
			"pbrMetallicRoughness":{
				"baseColorFactor":[
					1,
					1,
					1,
					0
				],
				"baseColorTexture":{
					"index":5
				},
				"metallicFactor":0
			}
		}
	],
	"meshes":[
		{
			"name":"male_m02",
			"primitives":[
				{
					"attributes":{
						"POSITION":0,
						"NORMAL":1,
						"TEXCOORD_0":2
					},
					"indices":3,
					"material":0
				},
				{
					"attributes":{
						"POSITION":4,
						"NORMAL":5,
						"TEXCOORD_0":6
					},
					"indices":7,
					"material":1
				},
				{
					"attributes":{
						"POSITION":8,
						"NORMAL":9,
						"TEXCOORD_0":10
					},
					"indices":11,
					"material":2
				},
				{
					"attributes":{
						"POSITION":12,
						"NORMAL":13,
						"TEXCOORD_0":14
					},
					"indices":15,
					"material":3
				},
				{
					"attributes":{
						"POSITION":16,
						"NORMAL":17,
						"TEXCOORD_0":18
					},
					"indices":19,
					"material":4
				},
				{
					"attributes":{
						"POSITION":20,
						"NORMAL":21,
						"TEXCOORD_0":22
					},
					"indices":23,
					"material":5
				}
			]
		}
	],
	"textures":[
		{
			"sampler":0,
			"source":0
		},
		{
			"sampler":0,
			"source":1
		},
		{
			"sampler":0,
			"source":2
		},
		{
			"sampler":0,
			"source":3
		},
		{
			"sampler":0,
			"source":4
		},
		{
			"sampler":0,
			"source":5
		}
	],
	"images":[
		{
			"mimeType":"image/png",
			"name":"middleage_lightskinned_male_diffuse2",
			"uri":"middleage_lightskinned_male_diffuse2.png"
		},
		{
			"mimeType":"image/png",
			"name":"short02_diffuse",
			"uri":"short02_diffuse.png"
		},
		{
			"mimeType":"image/png",
			"name":"brown_eye",
			"uri":"brown_eye.png"
		},
		{
			"mimeType":"image/png",
			"name":"eyebrow002",
			"uri":"eyebrow002.png"
		},
		{
			"mimeType":"image/png",
			"name":"male_casualsuit06_diffuse",
			"uri":"male_casualsuit06_diffuse.png"
		},
		{
			"mimeType":"image/png",
			"name":"shoes01_diffuse",
			"uri":"shoes01_diffuse.png"
		}
	],
	"accessors":[
		{
			"bufferView":0,
			"componentType":5126,
			"count":34512,
			"max":[
				5.685299873352051,
				3.7743000984191895,
				-1.6319999694824219
			],
			"min":[
				-5.685299873352051,
				-0.525600016117096,
				-17.661500930786133
			],
			"type":"VEC3"
		},
		{
			"bufferView":1,
			"componentType":5126,
			"count":34512,
			"type":"VEC3"
		},
		{
			"bufferView":2,
			"componentType":5126,
			"count":34512,
			"type":"VEC2"
		},
		{
			"bufferView":3,
			"componentType":5123,
			"count":51768,
			"type":"SCALAR"
		},
		{
			"bufferView":4,
			"componentType":5126,
			"count":6688,
			"max":[
				0.8755000233650208,
				1.7424999475479126,
				-15.758000373840332
			],
			"min":[
				-0.9326000213623047,
				-0.47909998893737793,
				-17.815099716186523
			],
			"type":"VEC3"
		},
		{
			"bufferView":5,
			"componentType":5126,
			"count":6688,
			"type":"VEC3"
		},
		{
			"bufferView":6,
			"componentType":5126,
			"count":6688,
			"type":"VEC2"
		},
		{
			"bufferView":7,
			"componentType":5123,
			"count":10032,
			"type":"SCALAR"
		},
		{
			"bufferView":8,
			"componentType":5126,
			"count":4080,
			"max":[
				0.460999995470047,
				1.5,
				-16.397199630737305
			],
			"min":[
				-0.460999995470047,
				1.238800048828125,
				-16.707399368286133
			],
			"type":"VEC3"
		},
		{
			"bufferView":9,
			"componentType":5126,
			"count":4080,
			"type":"VEC3"
		},
		{
			"bufferView":10,
			"componentType":5126,
			"count":4080,
			"type":"VEC2"
		},
		{
			"bufferView":11,
			"componentType":5123,
			"count":6120,
			"type":"SCALAR"
		},
		{
			"bufferView":12,
			"componentType":5126,
			"count":384,
			"max":[
				0.6044999957084656,
				1.5973000526428223,
				-16.58489990234375
			],
			"min":[
				-0.6044999957084656,
				1.2797000408172607,
				-16.721900939941406
			],
			"type":"VEC3"
		},
		{
			"bufferView":13,
			"componentType":5126,
			"count":384,
			"type":"VEC3"
		},
		{
			"bufferView":14,
			"componentType":5126,
			"count":384,
			"type":"VEC2"
		},
		{
			"bufferView":15,
			"componentType":5123,
			"count":576,
			"type":"SCALAR"
		},
		{
			"bufferView":16,
			"componentType":5126,
			"count":14336,
			"max":[
				3.0771000385284424,
				1.6756000518798828,
				-0.6651999950408936
			],
			"min":[
				-3.214600086212158,
				-1.080399990081787,
				-15.190299987792969
			],
			"type":"VEC3"
		},
		{
			"bufferView":17,
			"componentType":5126,
			"count":14336,
			"type":"VEC3"
		},
		{
			"bufferView":18,
			"componentType":5126,
			"count":14336,
			"type":"VEC2"
		},
		{
			"bufferView":19,
			"componentType":5123,
			"count":21504,
			"type":"SCALAR"
		},
		{
			"bufferView":20,
			"componentType":5126,
			"count":6640,
			"max":[
				2.5332999229431152,
				2.1821999549865723,
				0.021400000900030136
			],
			"min":[
				-2.5332999229431152,
				-0.5789999961853027,
				-2.1865999698638916
			],
			"type":"VEC3"
		},
		{
			"bufferView":21,
			"componentType":5126,
			"count":6640,
			"type":"VEC3"
		},
		{
			"bufferView":22,
			"componentType":5126,
			"count":6640,
			"type":"VEC2"
		},
		{
			"bufferView":23,
			"componentType":5123,
			"count":9960,
			"type":"SCALAR"
		}
	],
	"bufferViews":[
		{
			"buffer":0,
			"byteLength":414144,
			"byteOffset":0,
			"target":34962
		},
		{
			"buffer":0,
			"byteLength":414144,
			"byteOffset":414144,
			"target":34962
		},
		{
			"buffer":0,
			"byteLength":276096,
			"byteOffset":828288,
			"target":34962
		},
		{
			"buffer":0,
			"byteLength":103536,
			"byteOffset":1104384,
			"target":34963
		},
		{
			"buffer":0,
			"byteLength":80256,
			"byteOffset":1207920,
			"target":34962
		},
		{
			"buffer":0,
			"byteLength":80256,
			"byteOffset":1288176,
			"target":34962
		},
		{
			"buffer":0,
			"byteLength":53504,
			"byteOffset":1368432,
			"target":34962
		},
		{
			"buffer":0,
			"byteLength":20064,
			"byteOffset":1421936,
			"target":34963
		},
		{
			"buffer":0,
			"byteLength":48960,
			"byteOffset":1442000,
			"target":34962
		},
		{
			"buffer":0,
			"byteLength":48960,
			"byteOffset":1490960,
			"target":34962
		},
		{
			"buffer":0,
			"byteLength":32640,
			"byteOffset":1539920,
			"target":34962
		},
		{
			"buffer":0,
			"byteLength":12240,
			"byteOffset":1572560,
			"target":34963
		},
		{
			"buffer":0,
			"byteLength":4608,
			"byteOffset":1584800,
			"target":34962
		},
		{
			"buffer":0,
			"byteLength":4608,
			"byteOffset":1589408,
			"target":34962
		},
		{
			"buffer":0,
			"byteLength":3072,
			"byteOffset":1594016,
			"target":34962
		},
		{
			"buffer":0,
			"byteLength":1152,
			"byteOffset":1597088,
			"target":34963
		},
		{
			"buffer":0,
			"byteLength":172032,
			"byteOffset":1598240,
			"target":34962
		},
		{
			"buffer":0,
			"byteLength":172032,
			"byteOffset":1770272,
			"target":34962
		},
		{
			"buffer":0,
			"byteLength":114688,
			"byteOffset":1942304,
			"target":34962
		},
		{
			"buffer":0,
			"byteLength":43008,
			"byteOffset":2056992,
			"target":34963
		},
		{
			"buffer":0,
			"byteLength":79680,
			"byteOffset":2100000,
			"target":34962
		},
		{
			"buffer":0,
			"byteLength":79680,
			"byteOffset":2179680,
			"target":34962
		},
		{
			"buffer":0,
			"byteLength":53120,
			"byteOffset":2259360,
			"target":34962
		},
		{
			"buffer":0,
			"byteLength":19920,
			"byteOffset":2312480,
			"target":34963
		}
	],
	"samplers":[
		{
			"magFilter":9729,
			"minFilter":9987
		}
	],
	"buffers":[
		{
			"byteLength":2332400,
			"uri":"male_m02.bin"
		}
	]
}
