{
	"asset":{
		"generator":"Khronos glTF Blender I/O v4.0.43",
		"version":"2.0"
	},
	"scene":0,
	"scenes":[
		{
			"name":"Scene",
			"nodes":[
				0
			]
		}
	],
	"nodes":[
		{
			"mesh":0,
			"name":"SMPL-mesh-male",
			"rotation":[
				0.7071068286895752,
				0,
				0,
				0.7071068286895752
			]
		}
	],
	"materials":[
		{
			"alphaMode":"BLEND",
			"doubleSided":true,
			"name":"Body.006",
			"pbrMetallicRoughness":{
				"baseColorTexture":{
					"index":0
				},
				"metallicFactor":0,
				"metallicRoughnessTexture":{
					"index":1
				}
			}
		}
	],
	"meshes":[
		{
			"extras":{
				"targetNames":[
					"Shape000",
					"Shape001",
					"Shape002",
					"Shape003",
					"Shape004",
					"Shape005",
					"Shape006",
					"Shape007",
					"Shape008",
					"Shape009"
				]
			},
			"name":"SMPL-shapes-male.006",
			"primitives":[
				{
					"attributes":{
						"POSITION":0,
						"NORMAL":1,
						"TEXCOORD_0":2
					},
					"indices":3,
					"material":0,
					"targets":[
						{
							"POSITION":4,
							"NORMAL":5
						},
						{
							"POSITION":6,
							"NORMAL":7
						},
						{
							"POSITION":8,
							"NORMAL":9
						},
						{
							"POSITION":10,
							"NORMAL":11
						},
						{
							"POSITION":12,
							"NORMAL":13
						},
						{
							"POSITION":14,
							"NORMAL":15
						},
						{
							"POSITION":16,
							"NORMAL":17
						},
						{
							"POSITION":18,
							"NORMAL":19
						},
						{
							"POSITION":20,
							"NORMAL":21
						},
						{
							"POSITION":22,
							"NORMAL":23
						}
					]
				}
			],
			"weights":[
				0,
				0,
				0,
				0,
				0,
				0,
				0,
				0,
				0,
				0
			]
		}
	],
	"textures":[
		{
			"sampler":0,
			"source":0
		},
		{
			"sampler":0,
			"source":1
		}
	],
	"images":[
		{
			"mimeType":"image/png",
			"name":"m_01_alb.002-m_01_nrm.002",
			"uri":"m_01_alb_002-m_01_nrm_002.png"
		},
		{
			"mimeType":"image/png",
			"name":"m_01_nrm.002",
			"uri":"m_01_nrm_002.png"
		}
	],
	"accessors":[
		{
			"bufferView":0,
			"componentType":5126,
			"count":7576,
			"max":[
				0.9195399880409241,
				0.1805231273174286,
				-4.7962607219176334e-09
			],
			"min":[
				-0.9178591370582581,
				-0.12793242931365967,
				-1.791123390197754
			],
			"type":"VEC3"
		},
		{
			"bufferView":1,
			"componentType":5126,
			"count":7576,
			"type":"VEC3"
		},
		{
			"bufferView":2,
			"componentType":5126,
			"count":7576,
			"type":"VEC2"
		},
		{
			"bufferView":3,
			"componentType":5123,
			"count":41328,
			"type":"SCALAR"
		},
		{
			"bufferView":4,
			"componentType":5126,
			"count":7576,
			"max":[
				0.037938475608825684,
				0.005803018808364868,
				0.02147650718688965
			],
			"min":[
				-0.03787106275558472,
				-0.012414634227752686,
				-0.05702817440032959
			],
			"type":"VEC3"
		},
		{
			"bufferView":5,
			"componentType":5126,
			"count":7576,
			"type":"VEC3"
		},
		{
			"bufferView":6,
			"componentType":5126,
			"count":7576,
			"max":[
				0.014900445938110352,
				0.010285444557666779,
				0.01431119441986084
			],
			"min":[
				-0.01488521695137024,
				-0.026553288102149963,
				-0.016303420066833496
			],
			"type":"VEC3"
		},
		{
			"bufferView":7,
			"componentType":5126,
			"count":7576,
			"type":"VEC3"
		},
		{
			"bufferView":8,
			"componentType":5126,
			"count":7576,
			"max":[
				0.009687185287475586,
				0.005344122648239136,
				0.010699152946472168
			],
			"min":[
				-0.009570717811584473,
				-0.0024331584572792053,
				-0.0072934627532958984
			],
			"type":"VEC3"
		},
		{
			"bufferView":9,
			"componentType":5126,
			"count":7576,
			"type":"VEC3"
		},
		{
			"bufferView":10,
			"componentType":5126,
			"count":7576,
			"max":[
				0.003008335828781128,
				0.002525709569454193,
				0.006182193756103516
			],
			"min":[
				-0.0028524398803710938,
				-0.006002098321914673,
				-0.006430268287658691
			],
			"type":"VEC3"
		},
		{
			"bufferView":11,
			"componentType":5126,
			"count":7576,
			"type":"VEC3"
		},
		{
			"bufferView":12,
			"componentType":5126,
			"count":7576,
			"max":[
				0.0033079683780670166,
				0.003079436719417572,
				0.0036640167236328125
			],
			"min":[
				-0.0029989033937454224,
				-0.0043753981590271,
				-0.0026726722717285156
			],
			"type":"VEC3"
		},
		{
			"bufferView":13,
			"componentType":5126,
			"count":7576,
			"type":"VEC3"
		},
		{
			"bufferView":14,
			"componentType":5126,
			"count":7576,
			"max":[
				0.004068806767463684,
				0.004166170954704285,
				0.001924276351928711
			],
			"min":[
				-0.0038331300020217896,
				-0.003964774310588837,
				-0.0033852458000183105
			],
			"type":"VEC3"
		},
		{
			"bufferView":15,
			"componentType":5126,
			"count":7576,
			"type":"VEC3"
		},
		{
			"bufferView":16,
			"componentType":5126,
			"count":7576,
			"max":[
				0.0030873864889144897,
				0.007117182016372681,
				0.002849400043487549
			],
			"min":[
				-0.0032898038625717163,
				-0.005388334393501282,
				-0.003496527671813965
			],
			"type":"VEC3"
		},
		{
			"bufferView":17,
			"componentType":5126,
			"count":7576,
			"type":"VEC3"
		},
		{
			"bufferView":18,
			"componentType":5126,
			"count":7576,
			"max":[
				0.002998530864715576,
				0.002858951687812805,
				0.002275228500366211
			],
			"min":[
				-0.0015217959880828857,
				-0.002351626753807068,
				-0.0031311511993408203
			],
			"type":"VEC3"
		},
		{
			"bufferView":19,
			"componentType":5126,
			"count":7576,
			"type":"VEC3"
		},
		{
			"bufferView":20,
			"componentType":5126,
			"count":7576,
			"max":[
				0.0033115409314632416,
				0.002798333764076233,
				0.001728355884552002
			],
			"min":[
				-0.0021101832389831543,
				-0.0019475743174552917,
				-0.0019892454147338867
			],
			"type":"VEC3"
		},
		{
			"bufferView":21,
			"componentType":5126,
			"count":7576,
			"type":"VEC3"
		},
		{
			"bufferView":22,
			"componentType":5126,
			"count":7576,
			"max":[
				0.0032740235328674316,
				0.002604380249977112,
				0.001611471176147461
			],
			"min":[
				-0.003361538052558899,
				-0.0027204975485801697,
				-0.0028167366981506348
			],
			"type":"VEC3"
		},
		{
			"bufferView":23,
			"componentType":5126,
			"count":7576,
			"type":"VEC3"
		}
	],
	"bufferViews":[
		{
			"buffer":0,
			"byteLength":90912,
			"byteOffset":0,
			"target":34962
		},
		{
			"buffer":0,
			"byteLength":90912,
			"byteOffset":90912,
			"target":34962
		},
		{
			"buffer":0,
			"byteLength":60608,
			"byteOffset":181824,
			"target":34962
		},
		{
			"buffer":0,
			"byteLength":82656,
			"byteOffset":242432,
			"target":34963
		},
		{
			"buffer":0,
			"byteLength":90912,
			"byteOffset":325088,
			"target":34962
		},
		{
			"buffer":0,
			"byteLength":90912,
			"byteOffset":416000,
			"target":34962
		},
		{
			"buffer":0,
			"byteLength":90912,
			"byteOffset":506912,
			"target":34962
		},
		{
			"buffer":0,
			"byteLength":90912,
			"byteOffset":597824,
			"target":34962
		},
		{
			"buffer":0,
			"byteLength":90912,
			"byteOffset":688736,
			"target":34962
		},
		{
			"buffer":0,
			"byteLength":90912,
			"byteOffset":779648,
			"target":34962
		},
		{
			"buffer":0,
			"byteLength":90912,
			"byteOffset":870560,
			"target":34962
		},
		{
			"buffer":0,
			"byteLength":90912,
			"byteOffset":961472,
			"target":34962
		},
		{
			"buffer":0,
			"byteLength":90912,
			"byteOffset":1052384,
			"target":34962
		},
		{
			"buffer":0,
			"byteLength":90912,
			"byteOffset":1143296,
			"target":34962
		},
		{
			"buffer":0,
			"byteLength":90912,
			"byteOffset":1234208,
			"target":34962
		},
		{
			"buffer":0,
			"byteLength":90912,
			"byteOffset":1325120,
			"target":34962
		},
		{
			"buffer":0,
			"byteLength":90912,
			"byteOffset":1416032,
			"target":34962
		},
		{
			"buffer":0,
			"byteLength":90912,
			"byteOffset":1506944,
			"target":34962
		},
		{
			"buffer":0,
			"byteLength":90912,
			"byteOffset":1597856,
			"target":34962
		},
		{
			"buffer":0,
			"byteLength":90912,
			"byteOffset":1688768,
			"target":34962
		},
		{
			"buffer":0,
			"byteLength":90912,
			"byteOffset":1779680,
			"target":34962
		},
		{
			"buffer":0,
			"byteLength":90912,
			"byteOffset":1870592,
			"target":34962
		},
		{
			"buffer":0,
			"byteLength":90912,
			"byteOffset":1961504,
			"target":34962
		},
		{
			"buffer":0,
			"byteLength":90912,
			"byteOffset":2052416,
			"target":34962
		}
	],
	"samplers":[
		{
			"magFilter":9729,
			"minFilter":9987
		}
	],
	"buffers":[
		{
			"byteLength":2143328,
			"uri":"male.bin"
		}
	]
}
